<?xml version="1.0" encoding="iso-8859-1"?>
<!-- Generator: Adobe Illustrator 18.0.0, SVG Export Plug-In . SVG Version: 6.00 Build 0)  -->
<!DOCTYPE svg PUBLIC "-//W3C//DTD SVG 1.1//EN" "http://www.w3.org/Graphics/SVG/1.1/DTD/svg11.dtd">
<svg version="1.1" id="Capa_1" xmlns="http://www.w3.org/2000/svg" xmlns:xlink="http://www.w3.org/1999/xlink" x="0px" y="0px"
	 viewBox="0 0 60 60" style="enable-background:new 0 0 60 60;" xml:space="preserve">
<path d="M33,37c0.13,0,0.26-0.027,0.382-0.077c0.123-0.051,0.233-0.124,0.326-0.217l2.539-2.539C37.038,34.691,37.983,35,39,35
	c2.757,0,5-2.243,5-5s-2.243-5-5-5s-5,2.243-5,5c0,1.017,0.309,1.962,0.833,2.753L32.586,35H31v-9h2c0.13,0,0.26-0.027,0.382-0.077
	c0.123-0.051,0.233-0.124,0.326-0.217l2.539-2.539C37.038,23.691,37.983,24,39,24c2.757,0,5-2.243,5-5s-2.243-5-5-5s-5,2.243-5,5
	c0,1.017,0.309,1.962,0.833,2.753L32.586,24H31V13.92c3.387-0.488,6-3.401,6-6.92c0-3.859-3.14-7-7-7s-7,3.141-7,7
	c0,3.519,2.613,6.432,6,6.92V22h-1.586l-2.247-2.247C25.691,18.962,26,18.017,26,17c0-2.757-2.243-5-5-5s-5,2.243-5,5s2.243,5,5,5
	c1.017,0,1.962-0.309,2.753-0.833l2.539,2.539c0.092,0.093,0.203,0.166,0.326,0.217C26.74,23.973,26.87,24,27,24h2v10h-1.586
	l-2.247-2.247C25.691,30.962,26,30.017,26,29c0-2.757-2.243-5-5-5s-5,2.243-5,5s2.243,5,5,5c1.017,0,1.962-0.309,2.753-0.833
	l2.539,2.539c0.092,0.093,0.203,0.166,0.326,0.217C26.74,35.973,26.87,36,27,36h2v2H17v8h2.277l4.616,14h12.216l4.616-14H43v-8H31
	v-1H33z M25.7,51.71C25.52,51.89,25.26,52,25,52c-0.26,0-0.52-0.11-0.71-0.29C24.11,51.52,24,51.27,24,51
	c0-0.26,0.11-0.521,0.29-0.71c0.37-0.37,1.05-0.37,1.42,0C25.89,50.479,26,50.74,26,51C26,51.27,25.89,51.52,25.7,51.71z M30,52h-2
	c-0.552,0-1-0.447-1-1s0.448-1,1-1h2c0.552,0,1,0.447,1,1S30.552,52,30,52z M31,49h-6c-0.552,0-1-0.447-1-1s0.448-1,1-1h6
	c0.552,0,1,0.447,1,1S31.552,49,31,49z M34.71,48.71C34.52,48.89,34.26,49,34,49c-0.26,0-0.52-0.11-0.71-0.29
	C33.11,48.52,33,48.26,33,48c0-0.271,0.11-0.521,0.29-0.71c0.38-0.37,1.05-0.37,1.42,0C34.89,47.47,35,47.729,35,48
	C35,48.26,34.89,48.52,34.71,48.71z"/>
<g>
</g>
<g>
</g>
<g>
</g>
<g>
</g>
<g>
</g>
<g>
</g>
<g>
</g>
<g>
</g>
<g>
</g>
<g>
</g>
<g>
</g>
<g>
</g>
<g>
</g>
<g>
</g>
<g>
</g>
</svg>
