<?xml version="1.0" encoding="iso-8859-1"?>
<!-- Generator: Adobe Illustrator 18.0.0, SVG Export Plug-In . SVG Version: 6.00 Build 0)  -->
<!DOCTYPE svg PUBLIC "-//W3C//DTD SVG 1.1//EN" "http://www.w3.org/Graphics/SVG/1.1/DTD/svg11.dtd">
<svg version="1.1" id="Capa_1" xmlns="http://www.w3.org/2000/svg" xmlns:xlink="http://www.w3.org/1999/xlink" x="0px" y="0px"
	 viewBox="0 0 297 297" style="enable-background:new 0 0 297 297;" xml:space="preserve">
<g>
	<path d="M144.865,162.638v11.946c0,4.11-2.164,8.014-5.817,9.897c-4.225,2.178-9.266,1.358-12.574-1.948l-7.817-7.819l-7.352,7.352
		l18.259,18.258c2.034,2.035,3.155,4.74,3.155,7.618v79.593c0,5.226,4.237,9.463,9.463,9.463h15.763
		c5.226,0,9.463-4.237,9.463-9.463V219.91c0-2.878,1.12-5.583,3.155-7.618l15.133-15.133l-7.352-7.352l-4.691,4.692
		c-3.307,3.303-8.339,4.122-12.565,1.953c-3.657-1.877-5.826-5.779-5.826-9.889l0-23.925H144.865z"/>
	<path d="M289.432,122.216c0-34.74-26.947-63.303-61.037-65.881C216.498,22.81,184.664,0,148.5,0S80.502,22.81,68.605,56.336
		c-34.09,2.578-61.037,31.141-61.037,65.881c0,17.725,7.026,34.476,19.469,46.838c-0.501,3.078-0.753,6.191-0.753,9.307
		c0,32.009,26.041,58.05,58.049,58.05h34.491v-27.176l-19.552-19.551c-2.034-2.033-3.156-4.739-3.156-7.618
		c0-2.879,1.121-5.585,3.158-7.619l11.765-11.766c4.201-4.199,11.035-4.199,15.236,0l4.695,4.696v-7.861
		c0-5.94,4.833-10.773,10.773-10.773h16.641c5.94,0,10.773,4.832,10.773,10.773v19.828l1.569-1.57
		c2.034-2.034,4.74-3.155,7.617-3.155c2.878-0.001,5.584,1.12,7.619,3.155l11.766,11.766c0,0,0,0,0.001,0
		c4.2,4.201,4.2,11.036,0,15.236l-16.426,16.426v15.209h31.365c32.008,0,58.049-26.041,58.049-58.05
		c0-3.116-0.252-6.229-0.753-9.307C282.406,156.692,289.432,139.941,289.432,122.216z"/>
</g>
<g>
</g>
<g>
</g>
<g>
</g>
<g>
</g>
<g>
</g>
<g>
</g>
<g>
</g>
<g>
</g>
<g>
</g>
<g>
</g>
<g>
</g>
<g>
</g>
<g>
</g>
<g>
</g>
<g>
</g>
</svg>
