<?xml version="1.0" encoding="iso-8859-1"?>
<!-- Generator: Adobe Illustrator 18.0.0, SVG Export Plug-In . SVG Version: 6.00 Build 0)  -->
<!DOCTYPE svg PUBLIC "-//W3C//DTD SVG 1.1//EN" "http://www.w3.org/Graphics/SVG/1.1/DTD/svg11.dtd">
<svg version="1.1" id="Capa_1" xmlns="http://www.w3.org/2000/svg" xmlns:xlink="http://www.w3.org/1999/xlink" x="0px" y="0px"
	 viewBox="0 0 295.212 295.212" style="enable-background:new 0 0 295.212 295.212;" xml:space="preserve">
<path d="M240.289,253.807h-6.968c0.069-0.751,0.278-1.463,0.278-2.229c0-16.174-15.309-29.297-34.726-30.635
	c-1.87-14.728-15.76-25.073-30.675-22.026c0.179-0.483,0.279-0.926,0.467-1.413c0.011-0.005,0.011-0.016,0.011-0.02
	c2.263-5.909,6.695-15.459,12.342-24.468c4.45-8.432,31.124-30.909,35.838-79.941c0.038-0.391,0.358-0.693,0.75-0.708
	c0.392-0.015,0.735,0.263,0.802,0.649c7.117,41.329-9.576,71.538-13.711,78.939c31.629-2.827,54.79-28.326,53.079-65.153
	c-1.265-27.421-31.989-66.615-49.237-86.561c-1.324-1.531-3.47-2.059-5.354-1.319c-1.883,0.741-3.097,2.589-3.022,4.612
	c0.58,15.792-4.883,41.274-37.12,67.244c-23.956,22.116-14.62,57.836,8.61,73.533c-0.209,0.254-0.429,0.442-0.638,0.722
	c-3.871,4.523-6.867,9.211-9.346,14.038c-1.861,3.698-3.195,7.47-4.25,11.202c-4.189-4.295-9.536-7.489-15.597-9.291
	c2.895-17.348-0.967-35.481-12.112-48.86c-8.547-10.539-16.993-14.152-28.128-28.962C85.589,82.158,79.13,55.031,77.646,34.872
	c-1.503-20.349,0.826-33.984,0.826-33.984c0.061-0.378-0.169-0.761-0.547-0.861c-0.409-0.109-0.816,0.129-0.927,0.537
	c-3.493,11.74-7.352,41.938-0.676,70.264c10.175,43.218,34.011,56.987,41.345,70.217c6.137,9.276,11.533,22.723,13.546,38.245
	c-15.052,0-27.632,8.477-33.023,20.394c-3.056-0.767-6.212-1.294-9.505-1.294c-21.639,0-39.176,17.537-39.176,39.175
	c0,5.882,1.393,11.406,3.713,16.412c-10.63,0.88-19.001,9.679-19.001,20.533c0,11.436,9.267,20.702,20.703,20.702h185.364
	c11.436,0,20.701-9.266,20.701-20.702C260.99,263.074,251.724,253.807,240.289,253.807z"/>
<g>
</g>
<g>
</g>
<g>
</g>
<g>
</g>
<g>
</g>
<g>
</g>
<g>
</g>
<g>
</g>
<g>
</g>
<g>
</g>
<g>
</g>
<g>
</g>
<g>
</g>
<g>
</g>
<g>
</g>
</svg>
