<?xml version="1.0" encoding="iso-8859-1"?>
<!-- Generator: Adobe Illustrator 18.1.1, SVG Export Plug-In . SVG Version: 6.00 Build 0)  -->
<svg version="1.1" id="Capa_1" xmlns="http://www.w3.org/2000/svg" xmlns:xlink="http://www.w3.org/1999/xlink" x="0px" y="0px"
	 viewBox="0 0 612.003 612.003" style="enable-background:new 0 0 612.003 612.003;" xml:space="preserve">
<g>
	<g>
		<path d="M546.168,592.866c-0.153-0.411-0.297-0.797-0.41-1.141c-14.493-44.234-55.521-73.953-102.092-73.953
			c-16.816,0-32.877,3.949-47.232,11.001c-1.494-1.417-3.018-2.805-4.582-4.158c-21.283-18.394-47.819-29.478-75.697-31.827v-41.023
			c8.269-3.989,19.707-4.678,32.812-5.463c26.221-1.566,58.854-3.518,86.564-33.798c35.643-38.956,43.217-109.386,35.363-127.218
			c-2.71-6.152-7.03-7.071-9.366-7.071c-2.279,0-4.477,0.837-6.531,2.486c-7.188,5.767-20.061,6.461-34.967,7.266
			c-26.14,1.408-58.672,3.163-85.435,32.407c-7.355,8.037-13.451,17.254-18.438,26.99v-95.118
			c6.702-6.998,16.64-13.009,27.796-19.738c25.919-15.638,58.178-35.102,70.215-80.719C428.175,98.678,404.442,30.58,387.79,8.968
			C383.14,2.935,378.739,0,374.334,0c-1.915,0-6.652,0.648-9.268,6.646c-4.403,10.093-17.376,17.816-32.397,26.761
			c-25.919,15.433-58.178,34.639-69.797,78.68c-14.644,55.505,10.504,120.382,26.564,141.228c0.421,0.548,0.839,1.061,1.253,1.56
			v51.463c-4.747-17.663-13.705-35.81-32.976-51.57c-29.245-23.911-73.419-32.396-102.361-32.396
			c-28.048,0-31.326,7.349-32.402,9.763c-0.736,1.652-2.008,5.982,2.077,10.531c6.159,6.856,7.569,19.671,9.201,34.51
			c2.861,26.02,6.423,58.402,37.11,83.495c28.685,23.459,70.434,31.816,99.938,31.816c7.757,0,14.22-0.536,19.415-1.585v102.208
			c-26.723,2.893-52.071,13.807-72.551,31.507c-1.564,1.351-3.088,2.74-4.582,4.158c-14.353-7.052-30.416-11.001-47.232-11.001
			c-22.118,0-43.361,6.671-61.43,19.292c-17.651,12.33-31.069,29.425-38.8,49.437c-2.883,7.461-2.688,13.91,0.56,18.65
			c3.116,4.545,8.502,6.851,16.008,6.851h89.876h100.675h63.561h100.675h96.411c5.75,0,9.855-1.708,12.2-5.073
			C549.527,601.951,547.342,596.041,546.168,592.866z M263.239,350.164c-0.34-0.334-0.69-0.661-1.024-1.006l-0.507-0.516
			l-0.127-0.13l-0.032-0.032c-0.037-0.043,0.205,0.255,0.088,0.117l-0.061-0.055l-0.246-0.214c-0.649-0.569-1.306-1.146-1.972-1.729
			c-1.398-1.1-2.764-2.26-4.268-3.339c-5.921-4.382-12.879-8.389-20.336-12.287c-7.428-3.931-15.307-7.813-22.606-12.357
			c-3.648-2.26-7.135-4.705-10.31-7.303c-3.172-2.594-5.991-5.436-8.282-8.327c-2.269-2.915-4.076-5.813-5.212-8.598
			c-0.316-0.67-0.565-1.35-0.784-2.012c-0.233-0.655-0.437-1.287-0.626-1.891c-0.299-1.25-0.568-2.37-0.744-3.401
			c-0.136-1.065-0.236-1.992-0.297-2.786c-0.065-0.786-0.001-1.443,0-1.985c0.045-1.082,0.07-1.659,0.07-1.659
			s0.321,0.48,0.922,1.382c0.303,0.442,0.629,1.035,1.079,1.65c0.441,0.587,0.945,1.261,1.513,2.017
			c0.604,0.708,1.272,1.49,1.999,2.343c0.837,0.767,1.545,1.673,2.526,2.474c1.797,1.705,4.057,3.335,6.567,4.943
			c2.525,1.606,5.376,3.153,8.557,4.643c3.163,1.512,6.633,2.964,10.299,4.494c7.327,3.05,15.505,6.349,23.636,10.602
			c4.056,2.132,8.09,4.524,11.916,7.223c3.832,2.691,7.439,5.721,10.636,8.999c1.611,1.622,3.088,3.353,4.463,5.082
			c0.657,0.894,1.308,1.778,1.95,2.652l0.239,0.326l0.06,0.08c-0.097-0.116,0.166,0.205,0.146,0.186l0.025,0.038l0.095,0.153
			l0.387,0.612c0.261,0.404,0.5,0.823,0.747,1.229c1.978,3.253,3.784,6.381,5.399,9.308c0.789,1.477,1.57,2.875,2.269,4.239
			c0.686,1.375,1.335,2.689,1.91,3.946c1.164,2.503,2.137,4.715,2.893,6.567c1.531,3.693,2.235,5.926,2.235,5.926
			s-1.946-1.272-5.053-3.714c-3.149-2.417-7.315-6.071-12.327-10.513C268.577,355.302,265.95,352.833,263.239,350.164z
			 M305.463,234.835c0.723-2.156,1.657-4.742,2.775-7.672c1.143-2.92,2.436-6.215,3.844-9.809c1.45-3.576,3.082-7.414,4.882-11.43
			c0.225-0.503,0.451-1.007,0.679-1.515l0.354-0.76l0.088-0.19l0.023-0.048c0.027-0.051-0.159,0.28-0.073,0.118l0.033-0.089
			l0.136-0.358c0.363-0.95,0.732-1.913,1.104-2.885c0.647-1.992,1.361-3.982,1.929-6.083c2.382-8.344,3.844-17.669,4.913-27.425
			c1.113-9.741,1.927-19.896,3.639-29.654c0.847-4.873,1.942-9.639,3.325-14.133c1.38-4.49,3.162-8.698,5.216-12.373
			c2.084-3.662,4.345-6.832,6.772-9.252c0.565-0.629,1.17-1.192,1.771-1.715c0.586-0.532,1.16-1.029,1.711-1.499
			c1.182-0.872,2.241-1.654,3.243-2.302c1.056-0.618,1.986-1.138,2.791-1.565c0.798-0.425,1.518-0.661,2.087-0.908
			c1.155-0.451,1.773-0.69,1.773-0.69s-0.4,0.526-1.152,1.513c-0.365,0.494-0.884,1.07-1.383,1.789
			c-0.476,0.703-1.021,1.511-1.632,2.416c-0.544,0.931-1.143,1.964-1.799,3.087c-0.518,1.206-1.245,2.343-1.745,3.734
			c-0.272,0.666-0.554,1.356-0.843,2.067c-0.239,0.726-0.488,1.473-0.741,2.24c-0.269,0.745-0.451,1.57-0.684,2.371
			c-0.237,0.801-0.448,1.629-0.61,2.505c-0.769,3.424-1.333,7.191-1.68,11.287c-0.377,4.085-0.556,8.476-0.716,13.099
			c-0.309,9.242-0.475,19.461-1.63,29.975c-0.586,5.248-1.449,10.572-2.71,15.794c-1.254,5.223-2.945,10.341-5.063,15.13
			c-1.034,2.4-2.24,4.699-3.48,6.899c-0.663,1.079-1.322,2.146-1.971,3.2l-0.243,0.393l-0.061,0.098l-0.122,0.209l-0.031,0.043
			l-0.122,0.172l-0.489,0.681c-0.331,0.449-0.66,0.895-0.986,1.34c-2.613,3.546-5.156,6.858-7.559,9.884
			c-1.221,1.501-2.366,2.954-3.502,4.309c-1.152,1.347-2.263,2.621-3.334,3.796c-2.132,2.36-4.033,4.385-5.644,6.027
			c-3.204,3.293-5.211,5.06-5.211,5.06S304,239.14,305.463,234.835z M340.196,412.112l0.06-0.055l0.239-0.22
			c0.638-0.583,1.285-1.173,1.937-1.77c1.249-1.268,2.553-2.498,3.791-3.874c5.009-5.403,9.759-11.874,14.457-18.856
			c4.727-6.949,9.455-14.352,14.775-21.106c2.65-3.376,5.464-6.572,8.395-9.442c2.929-2.866,6.064-5.354,9.19-7.313
			c3.148-1.936,6.228-3.411,9.119-4.231c0.702-0.241,1.406-0.414,2.088-0.558c0.675-0.159,1.327-0.292,1.948-0.414
			c1.277-0.16,2.419-0.303,3.464-0.364c1.073-0.019,2.004-0.014,2.801,0.011c0.788,0.024,1.434,0.159,1.972,0.219
			c1.071,0.166,1.641,0.253,1.641,0.253s-0.512,0.265-1.475,0.764c-0.472,0.252-1.098,0.509-1.759,0.888
			c-0.632,0.373-1.357,0.801-2.171,1.281c-0.769,0.522-1.621,1.1-2.549,1.729c-0.853,0.746-1.834,1.351-2.739,2.24
			c-1.892,1.597-3.762,3.662-5.637,5.98c-1.873,2.334-3.726,4.997-5.556,7.994c-1.85,2.977-3.679,6.265-5.603,9.739
			c-3.838,6.947-8.021,14.711-13.144,22.323c-2.566,3.795-5.388,7.541-8.493,11.048c-3.098,3.511-6.507,6.763-10.118,9.577
			c-1.789,1.422-3.672,2.7-5.544,3.875c-0.961,0.555-1.911,1.104-2.851,1.646l-0.35,0.201l-0.087,0.05
			c0.126-0.083-0.222,0.141-0.2,0.126l-0.041,0.02l-0.163,0.079l-0.652,0.317c-0.43,0.215-0.872,0.406-1.303,0.607
			c-3.451,1.607-6.759,3.056-9.846,4.341c-1.556,0.621-3.032,1.244-4.464,1.788c-1.443,0.531-2.821,1.03-4.132,1.462
			c-2.617,0.88-4.922,1.603-6.847,2.151c-3.84,1.114-6.136,1.568-6.136,1.568s1.478-1.793,4.248-4.612
			c2.752-2.863,6.842-6.601,11.809-11.091c2.5-2.213,5.245-4.552,8.195-6.953c0.368-0.301,0.732-0.614,1.114-0.907l0.567-0.448
			l0.144-0.113l0.034-0.027C340.368,412.005,340.046,412.212,340.196,412.112z"/>
	</g>
</g>
<g>
</g>
<g>
</g>
<g>
</g>
<g>
</g>
<g>
</g>
<g>
</g>
<g>
</g>
<g>
</g>
<g>
</g>
<g>
</g>
<g>
</g>
<g>
</g>
<g>
</g>
<g>
</g>
<g>
</g>
</svg>
